<svg style="display: none">
  <symbol id="icon-logo-title" xmlns="http://www.w3.org/2000/svg" x="0px" y="0px" viewBox="0 0 146.3 40.375">
    <g>
      <path fill="currentColor"
        d="M71.874,18.661c0-0.708,0.58-1.288,1.256-1.288h7.18c5.087,0,8.436,2.704,8.436,7.146v0.064 c0,4.861-4.057,7.373-8.854,7.373h-5.475v6.825c0,0.708-0.58,1.288-1.288,1.288c-0.676,0-1.256-0.58-1.256-1.288V18.661z M79.988,29.641c3.734,0,6.182-1.996,6.182-4.959v-0.063c0-3.22-2.414-4.894-6.053-4.894h-5.699v9.917H79.988L79.988,29.641z" />
      <path fill="currentColor"
        d="M93.603,18.5c0-0.708,0.579-1.288,1.255-1.288c0.709,0,1.288,0.58,1.288,1.288v20.283 c0,0.708-0.579,1.287-1.288,1.287c-0.676,0-1.255-0.579-1.255-1.287V18.5z" />
      <path fill="currentColor"
        d="M102.744,18.532c0-0.676,0.58-1.256,1.256-1.256h0.354c0.58,0,0.935,0.29,1.288,0.74l13.684,17.45V18.468 c0-0.676,0.547-1.256,1.256-1.256c0.676,0,1.224,0.58,1.224,1.256v20.349c0,0.676-0.481,1.19-1.158,1.19h-0.129c-0.548,0-0.935-0.321-1.319-0.772l-13.975-17.868v17.45c0,0.676-0.547,1.256-1.256,1.256c-0.676,0-1.223-0.58-1.223-1.256V18.532 H102.744z" />
      <path fill="currentColor"
        d="M128.173,18.5c0-0.708,0.58-1.288,1.257-1.288c0.708,0,1.286,0.58,1.286,1.288v12.331l12.848-13.168 c0.29-0.257,0.579-0.451,0.998-0.451c0.676,0,1.225,0.612,1.225,1.256c0,0.354-0.162,0.644-0.42,0.901l-7.984,7.92l8.564,10.561 c0.225,0.291,0.354,0.547,0.354,0.935c0,0.676-0.578,1.288-1.286,1.288c-0.483,0-0.806-0.258-1.03-0.58l-8.402-10.463l-4.863,4.861 v4.894c0,0.708-0.578,1.288-1.286,1.288c-0.677,0-1.257-0.58-1.257-1.288V18.5H128.173z" />
    </g>
  </symbol>
  <symbol id="icon-logo-glasses-tablet" xmlns="http://www.w3.org/2000/svg" x="0px" y="0px" viewBox="0 0 146.3 40.375">
    <g>
      <path fill="currentColor" d="M60.498,28.266" />
      <path fill="currentColor"
        d="M60.462,28.016c-0.002-0.009-5.175-21.365-5.175-21.365C54.926,4.303,52.694,0,46.688,0 c-0.829,0-1.5,0.671-1.5,1.5s0.671,1.5,1.5,1.5c4.856,0,5.575,3.729,5.639,4.143l4.767,19.701h-2.073 c-0.742-5.927-5.802-10.531-11.927-10.531s-11.186,4.604-11.927,10.531h-1.82c-0.741-5.927-5.802-10.531-11.927-10.531 S6.235,20.917,5.493,26.844H3.42L8.187,7.143C8.25,6.729,8.97,3,13.826,3c0.829,0,1.5-0.671,1.5-1.5S14.655,0,13.826,0 C7.82,0,5.588,4.303,5.227,6.651c0,0-5.173,21.356-5.175,21.365c-0.266,1.109,0.531,1.826,1.426,1.826 c0.012,0,0.023,0.004,0.036,0.004h3.982c0.741,5.926,5.802,10.53,11.927,10.53s11.185-4.604,11.927-10.53h1.814 c0.742,5.926,5.802,10.53,11.927,10.53s11.186-4.604,11.927-10.53H59c0.012,0,0.023-0.004,0.036-0.004 C59.931,29.842,60.728,29.125,60.462,28.016z M26.315,29.844c-0.715,4.272-4.421,7.531-8.896,7.531c-4.475,0-8.18-3.259-8.896-7.531 c-0.082-0.488-0.135-0.988-0.135-1.5s0.053-1.011,0.135-1.5c0.715-4.271,4.421-7.531,8.896-7.531c4.475,0,8.18,3.26,8.896,7.531 c0.082,0.489,0.135,0.988,0.135,1.5S26.397,29.355,26.315,29.844z M51.99,29.844c-0.716,4.272-4.421,7.531-8.896,7.531 c-4.475,0-8.181-3.259-8.896-7.531c-0.082-0.488-0.135-0.988-0.135-1.5s0.053-1.011,0.135-1.5c0.716-4.271,4.421-7.531,8.896-7.531 c4.475,0,8.181,3.26,8.896,7.531c0.082,0.489,0.135,0.988,0.135,1.5S52.072,29.355,51.99,29.844z" />
    </g>
  </symbol>
  <symbol id="icon-logo-glasses-desktop" xmlns="http://www.w3.org/2000/svg" x="0px" y="0px" viewBox="0 0 146.3 40.375">
    <g>
      <path fill="currentColor"
        d="M43.094,19.313c0.246,0,0.489,0.014,0.73,0.033c-0.437-0.728-1.227-1.221-2.136-1.221 c-0.877,0-1.614-0.568-1.884-1.354c-0.727,0.208-1.425,0.482-2.089,0.816c0.062,0.017,0.122,0.038,0.188,0.038c1.104,0,2,0.896,2,2 c0,0.096-0.015,0.188-0.028,0.281C40.875,19.524,41.959,19.313,43.094,19.313z" />
      <path fill="currentColor"
        d="M60.462,28.016c-0.002-0.009-5.175-21.365-5.175-21.365C54.926,4.303,52.694,0,46.688,0 c-0.829,0-1.5,0.671-1.5,1.5s0.671,1.5,1.5,1.5c4.856,0,5.575,3.729,5.639,4.143l4.767,19.701h-2.073 c-0.445-3.557-2.453-6.628-5.305-8.522c-0.897,0.379-1.529,1.269-1.529,2.303c0,0.088-0.015,0.171-0.026,0.256 c1.991,1.358,3.415,3.489,3.829,5.964c0.082,0.489,0.135,0.988,0.135,1.5s-0.053,1.012-0.135,1.5 c-0.716,4.272-4.421,7.531-8.896,7.531c-4.475,0-8.181-3.259-8.896-7.531c-0.082-0.488-0.135-0.988-0.135-1.5 s0.053-1.011,0.135-1.5c0.147-0.878,0.427-1.711,0.808-2.483c-1.034-0.078-1.852-0.932-1.852-1.985 c0-0.189-0.077-0.357-0.192-0.489c-0.938,1.469-1.569,3.15-1.795,4.958h-1.82c-0.741-5.927-5.802-10.531-11.927-10.531 S6.235,20.917,5.493,26.844H3.42L8.187,7.143C8.25,6.729,8.97,3,13.826,3c0.829,0,1.5-0.671,1.5-1.5S14.655,0,13.826,0 C7.82,0,5.588,4.303,5.227,6.651c0,0-5.173,21.356-5.175,21.365c-0.266,1.109,0.531,1.826,1.426,1.826 c0.012,0,0.023,0.004,0.036,0.004h3.982c0.079,0.628,0.215,1.237,0.387,1.831c0.059-0.106,0.102-0.224,0.102-0.354 c0-1.104,0.896-2,2-2c0.166,0,0.324,0.025,0.478,0.063c-0.043-0.343-0.074-0.688-0.074-1.042c0-0.512,0.053-1.011,0.135-1.5 c0.715-4.271,4.421-7.531,8.896-7.531s8.18,3.26,8.896,7.531c0.082,0.489,0.135,0.988,0.135,1.5s-0.053,1.012-0.135,1.5 c-0.715,4.272-4.421,7.531-8.896,7.531c-2.022,0-3.883-0.67-5.386-1.794c-0.35,0.302-0.8,0.491-1.299,0.491 c-0.413,0-0.749,0.336-0.749,0.748c0,0.29-0.065,0.564-0.176,0.812c2.075,1.708,4.722,2.743,7.614,2.743 c6.125,0,11.185-4.604,11.927-10.53h1.814c0.742,5.926,5.802,10.53,11.927,10.53s11.186-4.604,11.927-10.53H59 c0.012,0,0.023-0.004,0.036-0.004C59.931,29.842,60.728,29.125,60.462,28.016z" />
    </g>
  </symbol>
  <symbol id="icon-logo-sparkles" xmlns="http://www.w3.org/2000/svg" x="0px" y="0px" viewBox="0 0 146.3 40.375">
    <g>
      <path fill="#D22856"
        d="M98.498,9.875c-2.002,0-3.623-1.623-3.623-3.624c0,2.001-1.623,3.624-3.625,3.624 c2.002,0,3.625,1.623,3.625,3.624C94.875,11.498,96.496,9.875,98.498,9.875z" />
      <path fill="#D22856"
        d="M50.686,16.125c-2.485,0-4.499-2.014-4.499-4.499c0,2.485-2.014,4.499-4.499,4.499 c2.485,0,4.499,2.014,4.499,4.499C46.187,18.139,48.2,16.125,50.686,16.125z" />
      <path fill="#D22856"
        d="M37.904,19.626c-1.519,0-2.749-1.23-2.749-2.749c0,1.519-1.23,2.749-2.749,2.749 c1.519,0,2.749,1.229,2.749,2.749C35.155,20.855,36.386,19.626,37.904,19.626z" />
      <path fill="#D22856"
        d="M10.734,34.072c-1.519,0-2.749-1.23-2.749-2.75c0,1.52-1.23,2.75-2.749,2.75 c1.519,0,2.749,1.229,2.749,2.748C7.985,35.303,9.215,34.072,10.734,34.072z" />
    </g>
  </symbol>
  <symbol id="icon-twitter" viewBox="0 0 54 54" fill="none" xmlns="http://www.w3.org/2000/svg">
    <path
      d="M29.5641 20.1689C30.2458 19.9538 30.9837 19.9439 31.6719 20.1405C32.3602 20.3371 32.9633 20.7301 33.3947 21.2632C34.1053 21.0538 34.8055 20.816 35.5263 20.6066C35.5164 20.9258 35.4299 21.2391 35.2732 21.5237C35.1165 21.8084 34.8935 22.0574 34.6201 22.2528C34.8726 22.2788 35.1281 22.2511 35.3673 22.172C35.6064 22.0928 35.8228 21.9642 36 21.7961C35.901 22.2099 35.6999 22.597 35.4123 22.9271C35.1247 23.2572 34.7585 23.5214 34.3421 23.6992C34.095 29.9699 30.9748 34.1662 23.6533 33.9949H23.1487C22.7059 33.9949 18.7311 33.5667 18 32.2441C19.752 32.4899 21.5389 32.0976 22.984 31.1498C21.9542 30.8643 20.1316 30.7026 19.8227 28.4093C20.2108 28.5434 20.6321 28.5731 21.0378 28.495C19.7609 27.7052 18.3398 27.0391 18.4222 24.9933C18.8196 25.2988 19.3269 25.4551 19.8432 25.431C19.1018 25.2026 17.7529 22.3099 18.8959 20.8255C20.8215 22.5478 22.8604 24.1749 26.4851 24.3367C26.7117 22.2052 27.6899 20.7779 29.5641 20.1689Z"
      fill="currentColor" />
  </symbol>
  <symbol id="icon-facebook" viewBox="0 0 54 54" fill="none" xmlns="http://www.w3.org/2000/svg">
    <path
      d="M29.5087 21.1932H32V18H29.0208C25.7612 18.1711 24.5986 20.2714 25.0761 23.8163H23V27.1521H25.0761V36H29.0208V27.1521H31.9792V23.8163H29.0104C28.9896 22.8184 28.9689 21.5259 29.5087 21.1932Z"
      fill="currentColor" />
  </symbol>
  <symbol id="icon-youtube" viewBox="0 0 54 54" fill="none" xmlns="http://www.w3.org/2000/svg">
    <path
      d="M23.8336 33.8089C23.6463 33.9278 23.4247 33.9941 23.1963 33.9996C22.9678 34.0051 22.7426 33.9495 22.5487 33.8398C22.3548 33.7301 22.2007 33.571 22.1056 33.3824C22.0106 33.1938 21.9787 32.984 22.014 32.779V22.221C21.9787 22.016 22.0106 21.8062 22.1056 21.6176C22.2007 21.429 22.3548 21.2699 22.5487 21.1602C22.7426 21.0505 22.9678 20.9949 23.1963 21.0004C23.4247 21.0059 23.6463 21.0722 23.8336 21.1911L36.2333 26.6928C37.2556 27.1382 37.2556 27.8618 36.2333 28.3072L23.8336 33.8089Z"
      fill="currentColor" />
  </symbol>
  <symbol id="icon-htmlacademy" xmlns="http://www.w3.org/2000/svg" x="0px" y="0px" viewBox="0 0 26.943 34.09"
    fill="currentColor">
    <path
      d="M13.62,0.017L13.472,0L0,1.412v24.661l13.472,8.017l13.43-7.99l0.042-0.026V1.412L13.62,0.017z M25.019,12.127L13.495,5.334 l-0.001-0.104L13.407,5.28l-0.088-0.056v0.109L1.925,12.118V3.147l11.547-1.212l11.547,1.212V12.127z M13.405,6.787L24.923,13.5 l-4.479,2.64l-7.093-4.221l-0.013,1.415l5.904,3.513l-0.86,0.507l-5.031-2.992l-0.013,1.415l3.827,2.275l-0.782,0.523l-3.032-1.787 l-0.013,1.413l1.852,1.091l-1.8,1.081L2.034,13.622L13.405,6.787z M1.925,15.127l11.411,6.791l0.015,1.044l-7.941-4.728L5.395,19.65 l7.979,4.796l0.017,1.076l-7.972-4.741l-0.013,1.415l8.021,4.821l0.045,0.026l8.143-4.872v-1.268l-0.011-0.148v-3.761l3.415-2.036 v10.02L13.472,31.85L1.925,24.979V15.127z" />
  </symbol>
  <symbol id="editor-crop" xmlns="http://www.w3.org/2000/svg" x="0px" y="0px" viewBox="0 0 48 48" fill="currentColor">
    <path fill="none" d="M0,0h48v48H0V0z" />
    <path d="M34,30h4V14c0-2.21-1.79-4-4-4H18v4h16V30z M14,34V2h-4v8H2v4h8v20c0,2.21,1.79,4,4,4h20v8h4v-8h8v-4H14z" />
  </symbol>
  <symbol id="editor-contrast" xmlns="http://www.w3.org/2000/svg" x="0px" y="0px" viewBox="-35 -8 32 32"
    fill="currentColor">
    <path
      d="M-19.462-3.96c6.595,0,11.96,5.365,11.96,11.96s-5.365,11.96-11.96,11.96S-31.422,14.595-31.422,8 S-26.057-3.96-19.462-3.96 M-19.462-7.96c-8.814,0-15.96,7.145-15.96,15.96c0,8.813,7.146,15.96,15.96,15.96S-3.502,16.813-3.502,8 C-3.502-0.815-10.648-7.96-19.462-7.96L-19.462-7.96z" />
    <path d="M-19.462,16.331c4.706,0,8.52-3.813,8.52-8.52c0-4.705-3.813-8.519-8.52-8.519" />
  </symbol>
  <symbol id="editor-fill" xmlns="http://www.w3.org/2000/svg" x="0px" y="0px" viewBox="0 0 48 48" fill="currentColor">
    <path
      d="M33.12,17.88L15.24,0l-2.83,2.83l4.76,4.76L6.88,17.88c-1.17,1.17-1.17,3.07,0,4.24l11,11C18.46,33.71,19.23,34,20,34 s1.54-0.29,2.12-0.88l11-11C34.29,20.95,34.29,19.05,33.12,17.88z M10.41,20L20,10.42L29.59,20H10.41z M38,23c0,0-4,4.33-4,7 c0,2.21,1.79,4,4,4s4-1.79,4-4C42,27.33,38,23,38,23z" />
    <rect y="40" width="48" height="3" />
  </symbol>
  <symbol id="icon-phone" xmlns="http://www.w3.org/2000/svg" x="0px" y="0px" viewBox="0 0 20 20">
    <path fill="currentColor"
      d="M9.848,0C6.34,0,2.823,0.628,1.546,1.878c-1.058,1.04-1.412,2.874-1.53,4.035c0,0-0.016,0.115-0.016,0.165 c0,0.454,0.369,0.82,0.819,0.82c0.054,0,2.028-0.161,3.218-0.259c0.029-0.004,0.058-0.008,0.086-0.017 C4.566,6.61,4.924,6.25,4.924,5.803l0.003-1.617c0-0.5,0.407-0.902,0.907-0.902h8.027c0.499,0,0.907,0.402,0.907,0.902l0.003,1.617 c0,0.447,0.356,0.808,0.802,0.82c0.027,0.009,0.056,0.013,0.085,0.017c1.19,0.098,3.164,0.259,3.217,0.259 c0.451,0,0.822-0.366,0.822-0.82c0-0.05-0.018-0.165-0.018-0.165c-0.118-1.161-0.472-2.995-1.53-4.035 C16.873,0.628,13.356,0,9.848,0z M9.848,10.67c-0.908,0-1.643,0.733-1.643,1.64c0,0.907,0.734,1.641,1.643,1.641 c0.906,0,1.641-0.733,1.641-1.641C11.488,11.404,10.754,10.67,9.848,10.67z M8.616,6.975V5.951c0-0.567-0.46-1.026-1.025-1.026 c-0.566,0-1.024,0.459-1.024,1.026v1.024l-5.537,5.913c-0.382,0.376-0.619,0.894-0.619,1.47v1.646c0,0.907,0.734,1.643,1.641,1.643 h0.411v1.023c0,0.568,0.46,1.026,1.026,1.026c0.565,0,1.024-0.458,1.024-1.026v-1.023h10.669v1.023c0,0.568,0.46,1.026,1.025,1.026 c0.567,0,1.026-0.458,1.026-1.026v-1.023h0.411c0.905,0,1.64-0.735,1.64-1.643v-1.646c0-0.576-0.236-1.094-0.618-1.47L13.13,6.975 V5.951c0-0.567-0.459-1.026-1.024-1.026c-0.567,0-1.027,0.459-1.027,1.026v1.024H8.616z M9.848,9.028 c1.814,0,3.282,1.468,3.282,3.282s-1.468,3.282-3.282,3.282c-1.813,0-3.281-1.468-3.281-3.282S8.034,9.028,9.848,9.028z" />
  </symbol>
  <symbol id="icon-mail" xmlns="http://www.w3.org/2000/svg" x="0px" y="0px" viewBox="0 0 18 14"
    preserveAspectRatio="xMidYMid">
    <g>
      <path fill="currentColor"
        d="M14.914,1.814C16.111,0.816,15.816,0,14.257,0H3.731c-1.56,0-1.854,0.816-0.657,1.814l3.742,3.118 c1.197,0.998,3.158,0.998,4.355,0L14.914,1.814z" />
    </g>
    <g>
      <path fill="currentColor"
        d="M11.913,7.044C10.715,8.042,9.718,8.869,9.695,8.88c0,0,0,0-0.02,0.013 C9.601,8.949,9.523,8.995,9.44,9.029C9.407,9.044,9.374,9.063,9.34,9.077c-0.11,0.034-0.223,0.058-0.335,0.059 c-0.003,0-0.007,0.001-0.01,0.001c0,0,0,0-0.001,0s-0.001,0-0.001,0c-0.003,0-0.007-0.001-0.01-0.001 C8.87,9.134,8.759,9.111,8.648,9.077C8.614,9.063,8.58,9.044,8.548,9.029c-0.083-0.034-0.16-0.08-0.235-0.136C8.293,8.88,8.293,8.88,8.293,8.88c-0.022-0.012-1.02-0.838-2.218-1.836L2.178,3.796C0.979,2.798,0,3.257,0,4.816v6.315 c0,1.56,1.275,2.835,2.835,2.835h12.318c1.56,0,2.835-1.275,2.835-2.835V4.816c0-1.559-0.979-2.018-2.178-1.02L11.913,7.044z" />
    </g>
  </symbol>
  <symbol id="map-marker" xmlns="http://www.w3.org/2000/svg" x="0px" y="0px" viewBox="0 0 36 36">
    <circle fill="#FFFFFF" cx="18" cy="18" r="18" />
    <circle fill="#D22856" cx="18" cy="18" r="8" />
  </symbol>
</svg>
